<svg id="Layer_1" data-name="Layer 1" xmlns="http://www.w3.org/2000/svg" viewBox="0 0 512 512"><defs><style>.cls-1{fill:#b45860;}</style></defs><title>ico1</title><path class="cls-1" d="M353.63,124.32c0-30.69,24.79-55.66,55.27-55.66s55.28,25,55.28,55.66S439.38,180,408.9,180,353.63,155,353.63,124.32ZM349.55,332.8c0,56.35-75.07,99.72-93.34,109.44-18.38-9.74-93.76-53.11-93.76-109.44,0-30.71,22.21-54.76,50.57-54.76,17.57,0,29.08,9,35.64,16.53a9.77,9.77,0,0,0,14.82-.15l.27-.29c9.47-10.67,21.32-16.08,35.23-16.08C327.34,278,349.55,302.09,349.55,332.8ZM26.3,304.29V265.92a66.55,66.55,0,0,1,66.48-66.48h20.64a66.55,66.55,0,0,1,66.48,66.48v1.2a71.46,71.46,0,0,0-31.74,37.17Zm21.52-180c0-30.69,24.8-55.66,55.28-55.66s55.27,25,55.27,55.66S133.58,180,103.1,180,47.82,155,47.82,124.32ZM248.09,203.7h15.83a48.77,48.77,0,0,1,48.71,48.72v7.51A68.76,68.76,0,0,0,299,258.57a64.4,64.4,0,0,0-43,15.89,64.28,64.28,0,0,0-43-15.89,68.84,68.84,0,0,0-13.65,1.36v-7.51A48.77,48.77,0,0,1,248.09,203.7ZM256,103.4a40.42,40.42,0,1,1-40.13,40.42A40.32,40.32,0,0,1,256,103.4Zm195.28,82.78a75.23,75.23,0,0,0,32.36-61.86c0-41.42-33.53-75.12-74.74-75.12s-74.74,33.7-74.74,75.12a75.21,75.21,0,0,0,32.37,61.86,86.46,86.46,0,0,0-41.69,35.63A68.72,68.72,0,0,0,293,190.74a59.59,59.59,0,1,0-74,0,68.72,68.72,0,0,0-31.86,31.07,86.46,86.46,0,0,0-41.69-35.63,75.21,75.21,0,0,0,32.37-61.86c0-41.42-33.53-75.12-74.74-75.12S28.36,82.9,28.36,124.32a75.21,75.21,0,0,0,32.37,61.86,86.06,86.06,0,0,0-53.9,79.74V314a9.74,9.74,0,0,0,9.74,9.74H143.48a81.5,81.5,0,0,0-.49,9c0,76.09,104.37,126.92,108.81,129.05a9.73,9.73,0,0,0,4.2.95h.76a9.92,9.92,0,0,0,3.92-1C265.1,459.7,369,408.88,369,332.81a84,84,0,0,0-.49-9.05h2.82a9.74,9.74,0,0,0,0-19.47h-7.5a71.46,71.46,0,0,0-31.74-37.17v-1.2a66.55,66.55,0,0,1,66.48-66.48h20.64a66.55,66.55,0,0,1,66.48,66.48v38.37H459.34a9.74,9.74,0,1,0,0,19.47h36.09a9.74,9.74,0,0,0,9.74-9.74v-48.1A86.07,86.07,0,0,0,451.28,186.18Z"/><path class="cls-1" d="M424.5,310.3a9.72,9.72,0,1,0-3.58,11.82A9.8,9.8,0,0,0,424.5,310.3Z"/></svg>