<svg id="Layer_1" data-name="Layer 1" xmlns="http://www.w3.org/2000/svg" viewBox="0 0 512 512"><defs><style>.cls-1{fill:#b45860;}</style></defs><title>ico5</title><path class="cls-1" d="M215.68,66.55A8.79,8.79,0,1,0,209.46,64,8.85,8.85,0,0,0,215.68,66.55Z"/><path class="cls-1" d="M276.4,281.35a22.72,22.72,0,0,0,29.45-21.68v-41a23,23,0,0,0,35.39-23.53L334,158.25a76.65,76.65,0,0,0-21.17-39.6l-12.45-12.42V57.76a8.79,8.79,0,1,0-17.58,0v52.12a8.81,8.81,0,0,0,2.58,6.23l15,15a59.24,59.24,0,0,1,16.33,30.55L324,198.59a5.42,5.42,0,0,1-10.59,2.34l-3.77-15.35a10.84,10.84,0,0,0-21.37,2.58v71.51a5.11,5.11,0,0,1-10.18.67V223a8.79,8.79,0,0,0-8.79-8.79h-.05a8.78,8.78,0,0,0-8.79,8.79v36.67c0,.48,0,.95.05,1.42v11.72a5.12,5.12,0,0,1-10.24,0V261.09c0-.47.05-.94.05-1.42V223a8.79,8.79,0,0,0-8.79-8.79h-.05a8.78,8.78,0,0,0-8.79,8.79v37.34a5.12,5.12,0,0,1-10.19-.67V246.56c0-.48,0-.95,0-1.42V223a8.79,8.79,0,0,0-8.79-8.79h-.05a8.78,8.78,0,0,0-8.79,8.79v22.81a5.12,5.12,0,0,1-10.19-.67V167.83a58.93,58.93,0,0,1,17.45-42l9.71-9.69a8.78,8.78,0,0,0,2.59-6.23V89.11a8.79,8.79,0,1,0-17.58,0v17.12l-7.14,7.12a76.43,76.43,0,0,0-22.61,54.48v77.3a22.71,22.71,0,0,0,29,21.82,22.71,22.71,0,0,0,28.24,14.4,22.69,22.69,0,0,0,42,0Z"/><path class="cls-1" d="M248.61,341.77a23.1,23.1,0,0,0-4.24-5.32,22.71,22.71,0,0,0-21-36.43,22.71,22.71,0,0,0-33.5-14.65l-35.46,20.47A23,23,0,0,0,116.29,287L88,311.73a76.77,76.77,0,0,0-23.72,38.13l-4.53,17L35.34,380.92a8.79,8.79,0,0,0,4.41,16.41,8.71,8.71,0,0,0,4.38-1.18l27.53-15.89a8.86,8.86,0,0,0,4.1-5.35l5.46-20.53A59.2,59.2,0,0,1,99.52,325l28.34-24.77a5.42,5.42,0,0,1,7.73.59,5.45,5.45,0,0,1-.4,7.41l-11.41,10.93a10.84,10.84,0,0,0,12.92,17.22l61.92-35.76a5.14,5.14,0,0,1,3.89-.51,5.12,5.12,0,0,1,3.62,6.27,5,5,0,0,1-2,2.81L172,327.75a8.8,8.8,0,0,0-3.22,12l0,0v0a8.79,8.79,0,0,0,12,3.22l31.75-18.34c.42-.23.82-.49,1.21-.75l10.15-5.86a5.12,5.12,0,0,1,5.12,8.87l-10.15,5.86c-.42.21-.84.43-1.26.67L185.85,351.8a8.79,8.79,0,0,0-3.22,12,9.1,9.1,0,0,0,1.18,1.59,8.81,8.81,0,0,0,6.47,2.85,8.71,8.71,0,0,0,4.38-1.18L227,348.4a5.12,5.12,0,0,1,4.51,9.16l-11.35,6.55c-.42.22-.84.43-1.26.67l-19.17,11.07a8.79,8.79,0,0,0-3.21,12,8.93,8.93,0,0,0,7.64,4.44,8.77,8.77,0,0,0,4.39-1.18l19.75-11.4a5.11,5.11,0,0,1,6.39,2.16,5.13,5.13,0,0,1-1.88,7l-28.17,16.26-38.77,22.39a59,59,0,0,1-45.13,5.9l-13.26-3.57a8.77,8.77,0,0,0-6.68.88L73.28,446.63a8.79,8.79,0,0,0,8.79,15.23l24.36-14.07,9.73,2.62a76.43,76.43,0,0,0,58.5-7.66l22.2-12.81h0l16.57-9.56,1.5-.87,26.67-15.4a22.73,22.73,0,0,0,8.31-31,23,23,0,0,0-3.9-5A22.74,22.74,0,0,0,248.61,341.77Z"/><path class="cls-1" d="M476.66,380.92l-24.37-14.07-2.59-9.73a76.37,76.37,0,0,0-35.88-46.83L375.05,287.9l-28.17-16.27a22.7,22.7,0,0,0-33.38,14.18,22.73,22.73,0,0,0-24.11,10.92,22.81,22.81,0,0,0-2.49,6.35,22.69,22.69,0,0,0-21,36.41,22.73,22.73,0,0,0,4.05,36.34l35.47,20.48a23,23,0,0,0,2.68,42.42l35.63,12.16a76.65,76.65,0,0,0,44.88,1.47l17-4.57,24.36,14.06a8.79,8.79,0,1,0,8.79-15.22l-27.52-15.9a8.81,8.81,0,0,0-6.68-.87L384,435.39a59.23,59.23,0,0,1-34.62-1.14l-35.63-12.16a5.44,5.44,0,0,1-3.35-7,5.45,5.45,0,0,1,6.62-3.36l15.17,4.42a10.84,10.84,0,0,0,8.45-19.8l-61.92-35.75a5.12,5.12,0,0,1,4.51-9.16l32.34,18.67A8.71,8.71,0,0,0,320,371.3a8.83,8.83,0,0,0,6.47-2.85,9.23,9.23,0,0,0,1.18-1.59,8.79,8.79,0,0,0-3.22-12l-31.75-18.34-1.27-.67L281.23,330a5.12,5.12,0,0,1,5.12-8.87L296.49,327c.4.26.8.52,1.21.76l31.76,18.33a8.75,8.75,0,0,0,10.85-1.67,9.1,9.1,0,0,0,1.18-1.59,8.79,8.79,0,0,0-3.21-12l-32.19-18.59a5.06,5.06,0,0,1-2-2.81,5.12,5.12,0,0,1,7.5-5.76L323,310.2c.39.26.79.51,1.21.75L343.35,322a8.71,8.71,0,0,0,4.38,1.18,8.83,8.83,0,0,0,6.47-2.85,9.1,9.1,0,0,0,1.18-1.59,8.78,8.78,0,0,0-3.22-12l-19.75-11.4a5.13,5.13,0,0,1-1.31-6.62,5.05,5.05,0,0,1,3.1-2.38,5.13,5.13,0,0,1,3.89.51l26.67,15.4,1.5.87,16.57,9.56h0L405,325.51a59,59,0,0,1,27.68,36.13l3.54,13.26a8.76,8.76,0,0,0,4.1,5.35l27.52,15.89a8.72,8.72,0,0,0,4.39,1.18,8.79,8.79,0,0,0,4.4-16.4Z"/></svg>