<svg id="Layer_1" data-name="Layer 1" xmlns="http://www.w3.org/2000/svg" viewBox="0 0 512 512"><defs><style>.cls-1{fill:#b45860;}</style></defs><title>ico2</title><circle class="cls-1" cx="187.1" cy="57.91" r="8.61"/><circle class="cls-1" cx="390.36" cy="316.29" r="8.61"/><circle class="cls-1" cx="338.68" cy="316.29" r="8.61"/><circle class="cls-1" cx="287.01" cy="316.29" r="8.61"/><path class="cls-1" d="M230.16,152.65v17.22H204.32a8.62,8.62,0,0,0-8.61,8.62v25.83H178.49V178.49a8.62,8.62,0,0,0-8.62-8.62H144V152.65h25.83a8.62,8.62,0,0,0,8.62-8.61V118.2h17.22V144a8.62,8.62,0,0,0,8.61,8.61ZM204.32,101H169.87a8.62,8.62,0,0,0-8.61,8.62v25.83H135.42a8.62,8.62,0,0,0-8.61,8.62v34.45a8.62,8.62,0,0,0,8.61,8.61h25.84v25.84a8.62,8.62,0,0,0,8.61,8.61h34.45a8.62,8.62,0,0,0,8.62-8.61V187.1h25.83a8.62,8.62,0,0,0,8.62-8.61V144a8.62,8.62,0,0,0-8.62-8.62H212.94V109.59A8.62,8.62,0,0,0,204.32,101Z"/><path class="cls-1" d="M403.8,396.14a8.61,8.61,0,0,0-4.66,7.79,63.45,63.45,0,0,0,14,38.82,77.92,77.92,0,0,1-42.95-30,8.62,8.62,0,0,0-8.32-3.52,152.23,152.23,0,0,1-23.16,1.8c-66.49,0-120.58-42.5-120.58-94.74,0-15.45.68-30.38,8.18-43.06h78a34.49,34.49,0,0,0,34.45-34.46V221.55c66.49,0,120.58,42.5,120.58,94.74C459.26,348.34,438.52,378.19,403.8,396.14ZM338.68,204.32V83.75A34.48,34.48,0,0,0,304.23,49.3H225.86a8.61,8.61,0,1,0,0,17.22h78.37a17.25,17.25,0,0,1,17.23,17.23v155A17.25,17.25,0,0,1,304.23,256H171.32a8.62,8.62,0,0,0-7.89,5.16A77.56,77.56,0,0,1,112.65,305a64.11,64.11,0,0,0,14.16-40.37A8.62,8.62,0,0,0,118.2,256H70a17.25,17.25,0,0,1-17.23-17.23v-155A17.25,17.25,0,0,1,70,66.52h78.37a8.61,8.61,0,1,0,0-17.22H70A34.48,34.48,0,0,0,35.52,83.75v155A34.46,34.46,0,0,0,70,273.21h38.84C103.93,299.88,81,307.73,79.9,308.59a8.61,8.61,0,0,0,3.85,16.31h8.61a94.75,94.75,0,0,0,84.41-51.69h30.35c-5.64,14-6.24,28.8-6.24,43.08,0,61.74,61.82,112,137.8,112A167.64,167.64,0,0,0,359.31,427a95.06,95.06,0,0,0,74.11,35.73H442a8.61,8.61,0,0,0,4-16.24c-1.73-1.4-25.79-9.62-29.31-37.73,37.54-21.24,59.76-55.44,59.76-92.44C476.48,254.55,414.66,204.32,338.68,204.32Z"/></svg>