<svg id="Layer_1" data-name="Layer 1" xmlns="http://www.w3.org/2000/svg" viewBox="0 0 512 512"><defs><style>.cls-1{fill:#b45860;}</style></defs><title>ico3</title><path class="cls-1" d="M454.05,193.68a8.06,8.06,0,1,0,5.69,2.36A8.12,8.12,0,0,0,454.05,193.68Z"/><path class="cls-1" d="M274,419.43H238.42a8.05,8.05,0,1,0,0,16.1H274a8.05,8.05,0,0,0,0-16.1Z"/><path class="cls-1" d="M339,121.92a8.05,8.05,0,1,0-5.69,2.36A8.14,8.14,0,0,0,339,121.92Z"/><path class="cls-1" d="M394.38,190.74l-61.09,26.88-61.1-26.88V154l57.6,27.8a8.06,8.06,0,0,0,7,0L394.38,154Zm29,33.2a10.74,10.74,0,0,1-10.72,10.73h-2.16V213.21h2.16A10.74,10.74,0,0,1,423.36,223.94Zm-90.07,79.64a61.17,61.17,0,0,1-61.1-61.1V208.33L330,233.78a8.08,8.08,0,0,0,6.49,0l57.85-25.45v34.15A61.17,61.17,0,0,1,333.29,303.58ZM200.94,337.33a7.94,7.94,0,0,0,.32-2.19A13.12,13.12,0,0,1,214.36,322H320.41v15.3ZM66,322H172.05a13.12,13.12,0,0,1,13.1,13.1,8,8,0,0,0,.32,2.2H66Zm0-144.92H172.05a13.13,13.13,0,0,1,13.1,13.11V309a29,29,0,0,0-13.1-3.11H66Zm177.21,46.83a10.74,10.74,0,0,1,10.73-10.73h2.15v21.46h-2.15A10.74,10.74,0,0,1,243.21,223.94Zm90.08-157,85.55,41.3H355.93a8,8,0,0,0,0,16.1h62.91l-85.55,41.29L231.05,116.24ZM446,415.4A30.64,30.64,0,0,1,415.4,446H96.6A30.64,30.64,0,0,1,66,415.4V409H446Zm11.66-306.35-.11-.07L336.79,50.7a8.1,8.1,0,0,0-7,0L209,109a8.06,8.06,0,0,0,0,14.51l47.06,22.71V196a7,7,0,0,0,.09,1.12h-2.24a26.83,26.83,0,1,0,0,53.66h2.6a77.25,77.25,0,0,0,32.82,55.15h-75A29.11,29.11,0,0,0,201.26,309V190.22a13.12,13.12,0,0,1,13.11-13.11h20.79a8.05,8.05,0,1,0,0-16.1H214.37a29.11,29.11,0,0,0-21.16,9.11A29.14,29.14,0,0,0,172.05,161H58a8.06,8.06,0,0,0-8.05,8.05V345.38A8.05,8.05,0,0,0,58,353.43h9.66v39.43H58a8.06,8.06,0,0,0-8.05,8.05V415.4a46.75,46.75,0,0,0,46.7,46.7H415.4a46.75,46.75,0,0,0,46.7-46.7V400.91a8.06,8.06,0,0,0-8.05-8.05h-9.67V274.52a8.05,8.05,0,1,0-16.1,0V392.86H83.71V353.43H328.46a8.05,8.05,0,0,0,8.05-8.05V319.6A77.3,77.3,0,0,0,410,250.77h2.61a26.83,26.83,0,0,0,0-53.66H410.4a8.32,8.32,0,0,0,.08-1.12V146.2L446,129.06v36.76a8.05,8.05,0,0,0,16.1,0V116.24A8.05,8.05,0,0,0,457.66,109.05Z"/><path class="cls-1" d="M152,252.78a8,8,0,1,0,5.7,2.36A8.11,8.11,0,0,0,152,252.78Z"/><path class="cls-1" d="M121.55,252.79H95.79a8,8,0,0,0,0,16.1h25.76a8,8,0,0,0,0-16.1Z"/><path class="cls-1" d="M95.79,230.25H152a8,8,0,0,0,0-16.1H95.79a8,8,0,0,0,0,16.1Z"/></svg>