<svg id="Layer_1" data-name="Layer 1" xmlns="http://www.w3.org/2000/svg" viewBox="0 0 512 512"><defs><style>.cls-1{fill:#b45860;}</style></defs><title>ico4</title><path class="cls-1" d="M383.5,370.85a8.07,8.07,0,0,0-8.07,8.07v59.45a8.08,8.08,0,0,1-8.07,8.07H73.64a8.08,8.08,0,0,1-8.07-8.07V73.63a8.08,8.08,0,0,1,8.07-8.07H367.36a8.08,8.08,0,0,1,8.07,8.07v87.76a8.07,8.07,0,1,0,16.14,0V73.63a24.24,24.24,0,0,0-24.21-24.21H73.64A24.24,24.24,0,0,0,49.43,73.63V438.37a24.24,24.24,0,0,0,24.21,24.21H367.36a24.24,24.24,0,0,0,24.21-24.21V378.92A8.07,8.07,0,0,0,383.5,370.85Z"/><path class="cls-1" d="M185.41,213.5a40.35,40.35,0,0,1,70.19,0,57.93,57.93,0,0,1-70.19,0ZM207.59,164v-5.25a12.91,12.91,0,0,1,25.82,0V164a12.91,12.91,0,0,1-25.82,0Zm12.91-54.87a58.06,58.06,0,0,1,46.75,92.54,55.93,55.93,0,0,0-23.77-19.93A28.89,28.89,0,0,0,249.55,164v-5.25a29,29,0,0,0-58.1,0V164a28.89,28.89,0,0,0,6.07,17.74,55.93,55.93,0,0,0-23.77,19.93,58.06,58.06,0,0,1,46.75-92.54Zm74.24,58.1a74.24,74.24,0,1,0-125.17,54,8.15,8.15,0,0,0,.86.8,74.1,74.1,0,0,0,100.13,0,7.37,7.37,0,0,0,.87-.8A74.07,74.07,0,0,0,294.74,167.24Z"/><path class="cls-1" d="M264.07,402.86H220.5a8.07,8.07,0,0,0,0,16.14h43.57a8.07,8.07,0,0,0,0-16.14Z"/><path class="cls-1" d="M264.08,357.68H149.49a8.07,8.07,0,1,0,0,16.13H264.08a8.07,8.07,0,1,0,0-16.13Z"/><path class="cls-1" d="M264.08,312.49H149.49a8.07,8.07,0,1,0,0,16.13H264.08a8.07,8.07,0,1,0,0-16.13Z"/><path class="cls-1" d="M120.73,269.66a8.05,8.05,0,1,0,2.37,5.71A8.13,8.13,0,0,0,120.73,269.66Z"/><path class="cls-1" d="M120.73,314.85a8.05,8.05,0,1,0,2.37,5.71A8.14,8.14,0,0,0,120.73,314.85Z"/><path class="cls-1" d="M115,357.68a8.07,8.07,0,1,0,5.71,2.36A8.16,8.16,0,0,0,115,357.68Z"/><path class="cls-1" d="M264.08,267.3H149.49a8.07,8.07,0,0,0,0,16.14H264.08a8.07,8.07,0,1,0,0-16.14Z"/><path class="cls-1" d="M444.06,192.81l-7.95,13.78-30.75-17.75,7.95-13.78a17.75,17.75,0,0,1,30.75,17.75Zm-97.51,168.9L315.8,344l81.49-141.14L428,220.56Zm-35.12-1.64,23.35,13.48L307.7,393.5Zm134.2-205.49A33.9,33.9,0,0,0,399.34,167L297.79,342.87a8,8,0,0,0-1,3.14l-7.15,64a8.06,8.06,0,0,0,8,9,8,8,0,0,0,4.78-1.57l51.88-38.2a8.22,8.22,0,0,0,2.2-2.46L458,200.88A33.94,33.94,0,0,0,445.63,154.58Z"/></svg>